<mxfile host="app.diagrams.net" modified="2021-12-29T10:59:14.673Z" agent="5.0 (X11; Linux x86_64) AppleWebKit/537.36 (KHTML, like Gecko) Chrome/96.0.4664.45 Safari/537.36" etag="egy0t_HORLqwgyzCsLGW" version="16.1.0" type="github" pages="3">
  <diagram id="yPxyJZ8AM_hMuL3Unpa9" name="release-branches">
    <mxGraphModel dx="2212" dy="897" grid="1" gridSize="10" guides="1" tooltips="1" connect="1" arrows="1" fold="1" page="1" pageScale="1" pageWidth="1100" pageHeight="850" math="0" shadow="0">
      <root>
        <mxCell id="0" />
        <mxCell id="1" parent="0" />
        <mxCell id="uWUnNED6HEl2aK5fdaIb-8" value="" style="edgeStyle=orthogonalEdgeStyle;rounded=0;html=1;jettySize=auto;orthogonalLoop=1;plain-blue;endArrow=none;endFill=0;strokeWidth=4;strokeColor=#000000;entryX=0;entryY=0.5;entryDx=0;entryDy=0;entryPerimeter=0;" parent="1" source="uWUnNED6HEl2aK5fdaIb-10" target="9hBKPDzoitwpIBdzFDQ7-16" edge="1">
          <mxGeometry x="292.25" y="211" as="geometry">
            <mxPoint x="442.25" y="211" as="targetPoint" />
          </mxGeometry>
        </mxCell>
        <mxCell id="uWUnNED6HEl2aK5fdaIb-9" style="edgeStyle=orthogonalEdgeStyle;curved=1;rounded=0;html=1;exitX=1;exitY=0.5;exitPerimeter=0;entryX=0;entryY=0.5;entryPerimeter=0;endArrow=none;endFill=0;jettySize=auto;orthogonalLoop=1;strokeWidth=4;fontSize=15;" parent="1" source="uWUnNED6HEl2aK5fdaIb-10" target="uWUnNED6HEl2aK5fdaIb-15" edge="1">
          <mxGeometry relative="1" as="geometry" />
        </mxCell>
        <mxCell id="uWUnNED6HEl2aK5fdaIb-10" value="" style="verticalLabelPosition=bottom;verticalAlign=top;html=1;strokeWidth=4;shape=mxgraph.flowchart.on-page_reference;plain-blue;gradientColor=none;fillColor=#B5E3Fe;strokeColor=#000000;" parent="1" vertex="1">
          <mxGeometry x="262.25" y="196" width="30" height="30" as="geometry" />
        </mxCell>
        <mxCell id="uWUnNED6HEl2aK5fdaIb-80" value="" style="edgeStyle=orthogonalEdgeStyle;curved=1;rounded=0;orthogonalLoop=1;jettySize=auto;html=1;endArrow=none;endFill=0;strokeWidth=4;entryX=0;entryY=0.5;entryDx=0;entryDy=0;entryPerimeter=0;" parent="1" source="uWUnNED6HEl2aK5fdaIb-11" target="uWUnNED6HEl2aK5fdaIb-109" edge="1">
          <mxGeometry relative="1" as="geometry">
            <mxPoint x="734.4999999999995" y="211" as="targetPoint" />
          </mxGeometry>
        </mxCell>
        <mxCell id="uWUnNED6HEl2aK5fdaIb-11" value="" style="verticalLabelPosition=bottom;verticalAlign=top;html=1;strokeWidth=4;shape=mxgraph.flowchart.on-page_reference;plain-blue;gradientColor=none;strokeColor=#000000;fillColor=#B5739D;" parent="1" vertex="1">
          <mxGeometry x="622.25" y="196" width="30" height="30" as="geometry" />
        </mxCell>
        <mxCell id="uWUnNED6HEl2aK5fdaIb-109" value="" style="verticalLabelPosition=bottom;verticalAlign=top;html=1;strokeWidth=4;shape=mxgraph.flowchart.on-page_reference;plain-blue;gradientColor=none;strokeColor=#33001A;fillColor=#B5739D;" parent="1" vertex="1">
          <mxGeometry x="760" y="196" width="30" height="30" as="geometry" />
        </mxCell>
        <mxCell id="uWUnNED6HEl2aK5fdaIb-12" value="" style="edgeStyle=orthogonalEdgeStyle;rounded=0;html=1;jettySize=auto;orthogonalLoop=1;strokeWidth=4;endArrow=none;endFill=0;" parent="1" target="uWUnNED6HEl2aK5fdaIb-10" edge="1">
          <mxGeometry x="192.25" y="211" as="geometry">
            <mxPoint x="150" y="211" as="sourcePoint" />
          </mxGeometry>
        </mxCell>
        <mxCell id="uWUnNED6HEl2aK5fdaIb-13" value="develop" style="text;html=1;strokeColor=none;fillColor=none;align=center;verticalAlign=middle;whiteSpace=wrap;overflow=hidden;fontSize=14;fontStyle=1;fontFamily=Courier New;" parent="1" vertex="1">
          <mxGeometry x="60" y="190" width="73" height="42" as="geometry" />
        </mxCell>
        <mxCell id="uWUnNED6HEl2aK5fdaIb-14" style="edgeStyle=orthogonalEdgeStyle;curved=1;rounded=0;html=1;exitX=1;exitY=0.5;exitPerimeter=0;endArrow=none;endFill=0;jettySize=auto;orthogonalLoop=1;strokeWidth=4;fontSize=15;" parent="1" source="uWUnNED6HEl2aK5fdaIb-15" target="uWUnNED6HEl2aK5fdaIb-17" edge="1">
          <mxGeometry relative="1" as="geometry" />
        </mxCell>
        <mxCell id="uWUnNED6HEl2aK5fdaIb-15" value="" style="verticalLabelPosition=bottom;verticalAlign=top;html=1;strokeWidth=4;shape=mxgraph.flowchart.on-page_reference;strokeColor=#b85450;fillColor=#f8cecc;" parent="1" vertex="1">
          <mxGeometry x="339.75" y="281" width="30" height="30" as="geometry" />
        </mxCell>
        <mxCell id="uWUnNED6HEl2aK5fdaIb-17" value="" style="verticalLabelPosition=bottom;verticalAlign=top;html=1;strokeWidth=4;shape=mxgraph.flowchart.on-page_reference;strokeColor=#d79b00;fillColor=#ffe6cc;" parent="1" vertex="1">
          <mxGeometry x="550" y="281" width="30" height="30" as="geometry" />
        </mxCell>
        <mxCell id="uWUnNED6HEl2aK5fdaIb-20" value="tlgate-v1.1.0" style="text;html=1;strokeColor=none;fillColor=none;align=left;verticalAlign=middle;whiteSpace=wrap;overflow=hidden;fontSize=14;fontStyle=1;fontFamily=Courier New;" parent="1" vertex="1">
          <mxGeometry x="88.75" y="286" width="240" height="20" as="geometry" />
        </mxCell>
        <mxCell id="uWUnNED6HEl2aK5fdaIb-89" value="The release branch" style="text;html=1;strokeColor=none;fillColor=none;align=left;verticalAlign=middle;whiteSpace=wrap;overflow=hidden;fontSize=14;fontStyle=0;fontColor=#009900;" parent="1" vertex="1">
          <mxGeometry x="86.75" y="306" width="240" height="20" as="geometry" />
        </mxCell>
        <mxCell id="uWUnNED6HEl2aK5fdaIb-90" value="The main branch&lt;br&gt;" style="text;html=1;strokeColor=none;fillColor=none;align=left;verticalAlign=middle;whiteSpace=wrap;overflow=hidden;fontSize=14;fontStyle=0;fontColor=#009900;" parent="1" vertex="1">
          <mxGeometry x="88.25" y="220" width="146.75" height="20" as="geometry" />
        </mxCell>
        <mxCell id="uWUnNED6HEl2aK5fdaIb-93" value="" style="endArrow=classic;html=1;strokeWidth=1;fontFamily=Courier New;fontColor=#009900;" parent="1" edge="1">
          <mxGeometry width="50" height="50" relative="1" as="geometry">
            <mxPoint x="216.75" y="296" as="sourcePoint" />
            <mxPoint x="296.75" y="296" as="targetPoint" />
          </mxGeometry>
        </mxCell>
        <mxCell id="uWUnNED6HEl2aK5fdaIb-103" value="Tag: tlgate-v1.1.0-rc1" style="text;html=1;strokeColor=none;fillColor=none;align=center;verticalAlign=middle;whiteSpace=wrap;overflow=hidden;fontSize=14;" parent="1" vertex="1">
          <mxGeometry x="242.25" y="170" width="147.75" height="20" as="geometry" />
        </mxCell>
        <mxCell id="9hBKPDzoitwpIBdzFDQ7-21" value="" style="edgeStyle=orthogonalEdgeStyle;rounded=0;orthogonalLoop=1;jettySize=auto;html=1;fontSize=15;endArrow=none;endFill=0;strokeWidth=4;entryX=0;entryY=0.5;entryDx=0;entryDy=0;entryPerimeter=0;" parent="1" source="9hBKPDzoitwpIBdzFDQ7-16" target="uWUnNED6HEl2aK5fdaIb-11" edge="1">
          <mxGeometry relative="1" as="geometry">
            <mxPoint x="560.25" y="211" as="targetPoint" />
          </mxGeometry>
        </mxCell>
        <mxCell id="9hBKPDzoitwpIBdzFDQ7-16" value="" style="verticalLabelPosition=bottom;verticalAlign=top;html=1;strokeWidth=4;shape=mxgraph.flowchart.on-page_reference;strokeColor=#d79b00;fillColor=#ffe6cc;" parent="1" vertex="1">
          <mxGeometry x="452.25" y="196" width="30" height="30" as="geometry" />
        </mxCell>
        <mxCell id="0Nr4qGa-AZEYN_fg6LnV-1" value="AT fails" style="text;html=1;strokeColor=none;fillColor=none;align=center;verticalAlign=middle;whiteSpace=wrap;overflow=hidden;fontStyle=1;fontColor=#FF0000;" vertex="1" parent="1">
          <mxGeometry x="310" y="320" width="80" height="30" as="geometry" />
        </mxCell>
        <mxCell id="0Nr4qGa-AZEYN_fg6LnV-3" value="Tag: tlgate-v1.1.0-rc2" style="text;html=1;strokeColor=none;fillColor=none;align=center;verticalAlign=middle;whiteSpace=wrap;overflow=hidden;fontSize=14;" vertex="1" parent="1">
          <mxGeometry x="410" y="170" width="147.75" height="20" as="geometry" />
        </mxCell>
        <mxCell id="0Nr4qGa-AZEYN_fg6LnV-4" value="AT passed : Release is Qualified and Protected" style="text;html=1;strokeColor=none;fillColor=none;align=center;verticalAlign=middle;whiteSpace=wrap;overflow=hidden;fontStyle=1" vertex="1" parent="1">
          <mxGeometry x="524" y="320" width="285" height="30" as="geometry" />
        </mxCell>
        <mxCell id="0Nr4qGa-AZEYN_fg6LnV-6" style="edgeStyle=orthogonalEdgeStyle;curved=1;rounded=0;html=1;exitX=1;exitY=0.5;exitPerimeter=0;entryX=0;entryY=0.5;entryPerimeter=0;endArrow=none;endFill=0;jettySize=auto;orthogonalLoop=1;strokeWidth=4;fontSize=15;exitDx=0;exitDy=0;entryDx=0;entryDy=0;" edge="1" parent="1" source="9hBKPDzoitwpIBdzFDQ7-16" target="uWUnNED6HEl2aK5fdaIb-17">
          <mxGeometry relative="1" as="geometry">
            <mxPoint x="550" y="330" as="sourcePoint" />
            <mxPoint x="597.5" y="415" as="targetPoint" />
          </mxGeometry>
        </mxCell>
        <mxCell id="lnW2x52XJvLZ27mFD1Z6-2" value="IT passed" style="text;html=1;strokeColor=none;fillColor=none;align=center;verticalAlign=middle;whiteSpace=wrap;overflow=hidden;" vertex="1" parent="1">
          <mxGeometry x="242.25" y="130" width="80" height="30" as="geometry" />
        </mxCell>
        <mxCell id="lnW2x52XJvLZ27mFD1Z6-4" value="IT passed" style="text;html=1;strokeColor=none;fillColor=none;align=center;verticalAlign=middle;whiteSpace=wrap;overflow=hidden;" vertex="1" parent="1">
          <mxGeometry x="443.88" y="130" width="80" height="30" as="geometry" />
        </mxCell>
        <mxCell id="lnW2x52XJvLZ27mFD1Z6-6" value="IT passed" style="text;html=1;strokeColor=none;fillColor=none;align=center;verticalAlign=middle;whiteSpace=wrap;overflow=hidden;" vertex="1" parent="1">
          <mxGeometry x="597.25" y="130" width="80" height="30" as="geometry" />
        </mxCell>
        <mxCell id="lnW2x52XJvLZ27mFD1Z6-7" value="IT passed" style="text;html=1;strokeColor=none;fillColor=none;align=center;verticalAlign=middle;whiteSpace=wrap;overflow=hidden;" vertex="1" parent="1">
          <mxGeometry x="735" y="130" width="80" height="30" as="geometry" />
        </mxCell>
        <mxCell id="lnW2x52XJvLZ27mFD1Z6-8" value="do a fix" style="endArrow=classic;html=1;strokeWidth=1;fontFamily=Courier New;fontColor=#009900;exitX=0.855;exitY=0.145;exitDx=0;exitDy=0;exitPerimeter=0;entryX=0.25;entryY=0;entryDx=0;entryDy=0;" edge="1" parent="1" source="uWUnNED6HEl2aK5fdaIb-15">
          <mxGeometry width="50" height="50" relative="1" as="geometry">
            <mxPoint x="226.75" y="306" as="sourcePoint" />
            <mxPoint x="447.25" y="226" as="targetPoint" />
          </mxGeometry>
        </mxCell>
      </root>
    </mxGraphModel>
  </diagram>
  <diagram name="hot-fixes" id="lrYJOHGYdZvBZDiZXior">
    <mxGraphModel dx="2212" dy="897" grid="1" gridSize="10" guides="1" tooltips="1" connect="1" arrows="1" fold="1" page="1" pageScale="1" pageWidth="1100" pageHeight="850" math="0" shadow="0">
      <root>
        <mxCell id="mOPdbwJWsml3GWoiLDdD-0" />
        <mxCell id="mOPdbwJWsml3GWoiLDdD-1" parent="mOPdbwJWsml3GWoiLDdD-0" />
        <mxCell id="mOPdbwJWsml3GWoiLDdD-2" value="fixes" style="text;html=1;strokeColor=none;fillColor=none;align=center;verticalAlign=middle;whiteSpace=wrap;overflow=hidden;" vertex="1" parent="mOPdbwJWsml3GWoiLDdD-1">
          <mxGeometry x="674.5" y="220" width="80" height="30" as="geometry" />
        </mxCell>
        <mxCell id="mOPdbwJWsml3GWoiLDdD-5" value="" style="verticalLabelPosition=bottom;verticalAlign=top;html=1;strokeWidth=4;shape=mxgraph.flowchart.on-page_reference;plain-blue;gradientColor=none;fillColor=#B5E3Fe;strokeColor=#000000;" vertex="1" parent="mOPdbwJWsml3GWoiLDdD-1">
          <mxGeometry x="262.25" y="196" width="30" height="30" as="geometry" />
        </mxCell>
        <mxCell id="mOPdbwJWsml3GWoiLDdD-6" value="" style="edgeStyle=orthogonalEdgeStyle;curved=1;rounded=0;orthogonalLoop=1;jettySize=auto;html=1;endArrow=none;endFill=0;strokeWidth=4;entryX=0;entryY=0.5;entryDx=0;entryDy=0;entryPerimeter=0;" edge="1" parent="mOPdbwJWsml3GWoiLDdD-1" source="mOPdbwJWsml3GWoiLDdD-7" target="mOPdbwJWsml3GWoiLDdD-8">
          <mxGeometry relative="1" as="geometry">
            <mxPoint x="546.2499999999995" y="211" as="targetPoint" />
          </mxGeometry>
        </mxCell>
        <mxCell id="mOPdbwJWsml3GWoiLDdD-7" value="" style="verticalLabelPosition=bottom;verticalAlign=top;html=1;strokeWidth=4;shape=mxgraph.flowchart.on-page_reference;plain-blue;gradientColor=none;strokeColor=#000000;fillColor=#CDA2BE;" vertex="1" parent="mOPdbwJWsml3GWoiLDdD-1">
          <mxGeometry x="434" y="196" width="30" height="30" as="geometry" />
        </mxCell>
        <mxCell id="mOPdbwJWsml3GWoiLDdD-8" value="" style="verticalLabelPosition=bottom;verticalAlign=top;html=1;strokeWidth=4;shape=mxgraph.flowchart.on-page_reference;plain-blue;gradientColor=none;strokeColor=#33001A;fillColor=#CDA2BE;" vertex="1" parent="mOPdbwJWsml3GWoiLDdD-1">
          <mxGeometry x="571.75" y="196" width="30" height="30" as="geometry" />
        </mxCell>
        <mxCell id="mOPdbwJWsml3GWoiLDdD-9" value="" style="edgeStyle=orthogonalEdgeStyle;rounded=0;html=1;jettySize=auto;orthogonalLoop=1;strokeWidth=4;endArrow=none;endFill=0;" edge="1" parent="mOPdbwJWsml3GWoiLDdD-1" target="mOPdbwJWsml3GWoiLDdD-5">
          <mxGeometry x="192.25" y="211" as="geometry">
            <mxPoint x="150" y="211" as="sourcePoint" />
          </mxGeometry>
        </mxCell>
        <mxCell id="mOPdbwJWsml3GWoiLDdD-10" value="develop" style="text;html=1;strokeColor=none;fillColor=none;align=center;verticalAlign=middle;whiteSpace=wrap;overflow=hidden;fontSize=14;fontStyle=1;fontFamily=Courier New;" vertex="1" parent="mOPdbwJWsml3GWoiLDdD-1">
          <mxGeometry x="60" y="190" width="73" height="42" as="geometry" />
        </mxCell>
        <mxCell id="mOPdbwJWsml3GWoiLDdD-13" value="" style="verticalLabelPosition=bottom;verticalAlign=top;html=1;strokeWidth=4;shape=mxgraph.flowchart.on-page_reference;plain-purple;gradientColor=none;strokeColor=#000000;fillColor=#D5E8D4;" vertex="1" parent="mOPdbwJWsml3GWoiLDdD-1">
          <mxGeometry x="361.75" y="281" width="30" height="30" as="geometry" />
        </mxCell>
        <mxCell id="mOPdbwJWsml3GWoiLDdD-14" value="tlgate-v1.1.0" style="text;html=1;strokeColor=none;fillColor=none;align=left;verticalAlign=middle;whiteSpace=wrap;overflow=hidden;fontSize=14;fontStyle=1;fontFamily=Courier New;" vertex="1" parent="mOPdbwJWsml3GWoiLDdD-1">
          <mxGeometry x="88.75" y="286" width="240" height="20" as="geometry" />
        </mxCell>
        <mxCell id="mOPdbwJWsml3GWoiLDdD-15" value="The release branch" style="text;html=1;strokeColor=none;fillColor=none;align=left;verticalAlign=middle;whiteSpace=wrap;overflow=hidden;fontSize=14;fontStyle=0;fontColor=#009900;" vertex="1" parent="mOPdbwJWsml3GWoiLDdD-1">
          <mxGeometry x="86.75" y="306" width="240" height="20" as="geometry" />
        </mxCell>
        <mxCell id="mOPdbwJWsml3GWoiLDdD-16" value="The main branch&lt;br&gt;" style="text;html=1;strokeColor=none;fillColor=none;align=left;verticalAlign=middle;whiteSpace=wrap;overflow=hidden;fontSize=14;fontStyle=0;fontColor=#009900;" vertex="1" parent="mOPdbwJWsml3GWoiLDdD-1">
          <mxGeometry x="88.25" y="220" width="146.75" height="20" as="geometry" />
        </mxCell>
        <mxCell id="mOPdbwJWsml3GWoiLDdD-17" value="" style="endArrow=classic;html=1;strokeWidth=1;fontFamily=Courier New;fontColor=#009900;" edge="1" parent="mOPdbwJWsml3GWoiLDdD-1">
          <mxGeometry width="50" height="50" relative="1" as="geometry">
            <mxPoint x="216.75" y="296" as="sourcePoint" />
            <mxPoint x="296.75" y="296" as="targetPoint" />
          </mxGeometry>
        </mxCell>
        <mxCell id="mOPdbwJWsml3GWoiLDdD-18" value="Tag: tlgate-v1.1.0-rc2" style="text;html=1;strokeColor=none;fillColor=none;align=center;verticalAlign=middle;whiteSpace=wrap;overflow=hidden;fontSize=14;" vertex="1" parent="mOPdbwJWsml3GWoiLDdD-1">
          <mxGeometry x="242.25" y="170" width="147.75" height="20" as="geometry" />
        </mxCell>
        <mxCell id="mOPdbwJWsml3GWoiLDdD-21" value="" style="edgeStyle=orthogonalEdgeStyle;rounded=0;orthogonalLoop=1;jettySize=auto;html=1;fontSize=15;endArrow=none;endFill=0;strokeWidth=4;entryX=0;entryY=0.5;entryDx=0;entryDy=0;entryPerimeter=0;" edge="1" parent="mOPdbwJWsml3GWoiLDdD-1" target="mOPdbwJWsml3GWoiLDdD-7">
          <mxGeometry relative="1" as="geometry">
            <mxPoint x="372" y="211" as="targetPoint" />
            <mxPoint x="294" y="211" as="sourcePoint" />
          </mxGeometry>
        </mxCell>
        <mxCell id="mOPdbwJWsml3GWoiLDdD-23" value="AT passed" style="text;html=1;strokeColor=none;fillColor=none;align=center;verticalAlign=middle;whiteSpace=wrap;overflow=hidden;" vertex="1" parent="mOPdbwJWsml3GWoiLDdD-1">
          <mxGeometry x="336.75" y="320" width="80" height="30" as="geometry" />
        </mxCell>
        <mxCell id="mOPdbwJWsml3GWoiLDdD-26" style="edgeStyle=orthogonalEdgeStyle;curved=1;rounded=0;html=1;exitX=1;exitY=0.5;exitPerimeter=0;entryX=0;entryY=0.5;entryPerimeter=0;endArrow=none;endFill=0;jettySize=auto;orthogonalLoop=1;strokeWidth=4;fontSize=15;exitDx=0;exitDy=0;entryDx=0;entryDy=0;" edge="1" parent="mOPdbwJWsml3GWoiLDdD-1" target="mOPdbwJWsml3GWoiLDdD-13">
          <mxGeometry relative="1" as="geometry">
            <mxPoint x="294" y="211" as="sourcePoint" />
            <mxPoint x="409.25" y="415" as="targetPoint" />
          </mxGeometry>
        </mxCell>
        <mxCell id="mOPdbwJWsml3GWoiLDdD-29" value="" style="verticalLabelPosition=bottom;verticalAlign=top;html=1;strokeWidth=4;shape=mxgraph.flowchart.on-page_reference;plain-purple;gradientColor=none;strokeColor=#000000;fillColor=#D5E8D4;" vertex="1" parent="mOPdbwJWsml3GWoiLDdD-1">
          <mxGeometry x="361.75" y="281" width="30" height="30" as="geometry" />
        </mxCell>
        <mxCell id="mOPdbwJWsml3GWoiLDdD-30" value="tlgate-v1.1.0" style="text;html=1;strokeColor=none;fillColor=none;align=left;verticalAlign=middle;whiteSpace=wrap;overflow=hidden;fontSize=14;fontStyle=1;fontFamily=Courier New;" vertex="1" parent="mOPdbwJWsml3GWoiLDdD-1">
          <mxGeometry x="88.75" y="286" width="240" height="20" as="geometry" />
        </mxCell>
        <mxCell id="mOPdbwJWsml3GWoiLDdD-31" value="The release branch is unlocked" style="text;html=1;strokeColor=none;fillColor=none;align=left;verticalAlign=middle;whiteSpace=wrap;overflow=hidden;fontSize=14;fontStyle=0;fontColor=#009900;" vertex="1" parent="mOPdbwJWsml3GWoiLDdD-1">
          <mxGeometry x="86.75" y="306" width="240" height="20" as="geometry" />
        </mxCell>
        <mxCell id="mOPdbwJWsml3GWoiLDdD-32" value="" style="endArrow=classic;html=1;strokeWidth=1;fontFamily=Courier New;fontColor=#009900;" edge="1" parent="mOPdbwJWsml3GWoiLDdD-1">
          <mxGeometry width="50" height="50" relative="1" as="geometry">
            <mxPoint x="216.75" y="296" as="sourcePoint" />
            <mxPoint x="296.75" y="296" as="targetPoint" />
          </mxGeometry>
        </mxCell>
        <mxCell id="mOPdbwJWsml3GWoiLDdD-58" value="" style="verticalLabelPosition=bottom;verticalAlign=top;html=1;strokeWidth=4;shape=mxgraph.flowchart.on-page_reference;plain-blue;gradientColor=none;strokeColor=#33001A;fillColor=#FFD966;" vertex="1" parent="mOPdbwJWsml3GWoiLDdD-1">
          <mxGeometry x="699.5" y="196" width="30" height="30" as="geometry" />
        </mxCell>
        <mxCell id="mOPdbwJWsml3GWoiLDdD-59" value="new feature 1" style="text;html=1;strokeColor=none;fillColor=none;align=center;verticalAlign=middle;whiteSpace=wrap;overflow=hidden;" vertex="1" parent="mOPdbwJWsml3GWoiLDdD-1">
          <mxGeometry x="409" y="220" width="80" height="30" as="geometry" />
        </mxCell>
        <mxCell id="mOPdbwJWsml3GWoiLDdD-61" value="new feature 2" style="text;html=1;strokeColor=none;fillColor=none;align=center;verticalAlign=middle;whiteSpace=wrap;overflow=hidden;" vertex="1" parent="mOPdbwJWsml3GWoiLDdD-1">
          <mxGeometry x="539.5" y="220" width="80" height="30" as="geometry" />
        </mxCell>
        <mxCell id="mOPdbwJWsml3GWoiLDdD-62" value="" style="edgeStyle=orthogonalEdgeStyle;curved=1;rounded=0;orthogonalLoop=1;jettySize=auto;html=1;endArrow=none;endFill=0;strokeWidth=4;entryX=0;entryY=0.5;entryDx=0;entryDy=0;entryPerimeter=0;exitX=1;exitY=0.5;exitDx=0;exitDy=0;exitPerimeter=0;" edge="1" parent="mOPdbwJWsml3GWoiLDdD-1" source="mOPdbwJWsml3GWoiLDdD-8" target="mOPdbwJWsml3GWoiLDdD-58">
          <mxGeometry relative="1" as="geometry">
            <mxPoint x="581.75" y="221" as="targetPoint" />
            <mxPoint x="474" y="221" as="sourcePoint" />
          </mxGeometry>
        </mxCell>
        <mxCell id="mOPdbwJWsml3GWoiLDdD-63" value="" style="edgeStyle=orthogonalEdgeStyle;curved=1;rounded=0;orthogonalLoop=1;jettySize=auto;html=1;endArrow=none;endFill=0;strokeWidth=4;exitX=1;exitY=0.5;exitDx=0;exitDy=0;exitPerimeter=0;" edge="1" parent="mOPdbwJWsml3GWoiLDdD-1" source="mOPdbwJWsml3GWoiLDdD-29">
          <mxGeometry relative="1" as="geometry">
            <mxPoint x="840" y="296" as="targetPoint" />
            <mxPoint x="474" y="221" as="sourcePoint" />
          </mxGeometry>
        </mxCell>
        <mxCell id="mOPdbwJWsml3GWoiLDdD-64" value="" style="verticalLabelPosition=bottom;verticalAlign=top;html=1;strokeWidth=4;shape=mxgraph.flowchart.on-page_reference;plain-blue;gradientColor=none;strokeColor=#33001A;fillColor=#FFD966;fontColor=#FFFF00;" vertex="1" parent="mOPdbwJWsml3GWoiLDdD-1">
          <mxGeometry x="840" y="281" width="30" height="30" as="geometry" />
        </mxCell>
        <mxCell id="mOPdbwJWsml3GWoiLDdD-65" value="RETROFIT (rework)" style="edgeStyle=orthogonalEdgeStyle;curved=1;rounded=0;html=1;exitX=1;exitY=0.5;exitPerimeter=0;endArrow=none;endFill=0;jettySize=auto;orthogonalLoop=1;strokeWidth=4;fontSize=11;exitDx=0;exitDy=0;entryX=0;entryY=0.5;entryDx=0;entryDy=0;entryPerimeter=0;fontColor=#60854C;fontStyle=0" edge="1" parent="mOPdbwJWsml3GWoiLDdD-1" source="mOPdbwJWsml3GWoiLDdD-58" target="mOPdbwJWsml3GWoiLDdD-64">
          <mxGeometry relative="1" as="geometry">
            <mxPoint x="304" y="221" as="sourcePoint" />
            <mxPoint x="840" y="290" as="targetPoint" />
            <Array as="points">
              <mxPoint x="780" y="211" />
              <mxPoint x="780" y="296" />
            </Array>
          </mxGeometry>
        </mxCell>
        <mxCell id="mOPdbwJWsml3GWoiLDdD-66" value="AT passed" style="text;html=1;strokeColor=none;fillColor=none;align=center;verticalAlign=middle;whiteSpace=wrap;overflow=hidden;" vertex="1" parent="mOPdbwJWsml3GWoiLDdD-1">
          <mxGeometry x="815" y="320" width="80" height="30" as="geometry" />
        </mxCell>
        <mxCell id="mOPdbwJWsml3GWoiLDdD-67" value="IT passed" style="text;html=1;strokeColor=none;fillColor=none;align=center;verticalAlign=middle;whiteSpace=wrap;overflow=hidden;" vertex="1" parent="mOPdbwJWsml3GWoiLDdD-1">
          <mxGeometry x="674.5" y="160" width="80" height="30" as="geometry" />
        </mxCell>
        <mxCell id="URu7C6ZPJgRQKlMHP2JY-0" value="" style="endArrow=classic;html=1;strokeWidth=1;fontFamily=Courier New;fontColor=#009900;" edge="1" parent="mOPdbwJWsml3GWoiLDdD-1">
          <mxGeometry width="50" height="50" relative="1" as="geometry">
            <mxPoint x="855" y="390" as="sourcePoint" />
            <mxPoint x="855" y="350" as="targetPoint" />
            <Array as="points">
              <mxPoint x="855" y="380" />
              <mxPoint x="854.75" y="390" />
            </Array>
          </mxGeometry>
        </mxCell>
        <mxCell id="URu7C6ZPJgRQKlMHP2JY-1" value="&lt;span style=&quot;text-align: center&quot;&gt;release is qualified, branch is protected&lt;br&gt;&lt;/span&gt;" style="text;html=1;strokeColor=none;fillColor=none;align=left;verticalAlign=middle;whiteSpace=wrap;overflow=hidden;fontSize=12;fontStyle=0;fontColor=#000000;" vertex="1" parent="mOPdbwJWsml3GWoiLDdD-1">
          <mxGeometry x="754.5" y="390" width="230" height="29" as="geometry" />
        </mxCell>
        <mxCell id="URu7C6ZPJgRQKlMHP2JY-2" value="Tag: tlgate-v1.1.1" style="text;html=1;strokeColor=none;fillColor=none;align=center;verticalAlign=middle;whiteSpace=wrap;overflow=hidden;fontSize=14;" vertex="1" parent="mOPdbwJWsml3GWoiLDdD-1">
          <mxGeometry x="860" y="286" width="147.75" height="20" as="geometry" />
        </mxCell>
      </root>
    </mxGraphModel>
  </diagram>
  <diagram name="feature-branches" id="9MecKWPRgAFIM3ZbUktN">
    <mxGraphModel dx="2212" dy="897" grid="1" gridSize="10" guides="1" tooltips="1" connect="1" arrows="1" fold="1" page="1" pageScale="1" pageWidth="1100" pageHeight="850" math="0" shadow="0">
      <root>
        <mxCell id="dB05RF2seS8kiTpS__xH-0" />
        <mxCell id="dB05RF2seS8kiTpS__xH-1" parent="dB05RF2seS8kiTpS__xH-0" />
        <mxCell id="dB05RF2seS8kiTpS__xH-3" value="" style="edgeStyle=orthogonalEdgeStyle;rounded=0;html=1;jettySize=auto;orthogonalLoop=1;plain-blue;endArrow=none;endFill=0;strokeWidth=4;strokeColor=#000000;entryX=0;entryY=0.5;entryDx=0;entryDy=0;entryPerimeter=0;" edge="1" parent="dB05RF2seS8kiTpS__xH-1" source="dB05RF2seS8kiTpS__xH-5" target="dB05RF2seS8kiTpS__xH-7">
          <mxGeometry x="342.25" y="573" as="geometry">
            <mxPoint x="502.25" y="573" as="targetPoint" />
          </mxGeometry>
        </mxCell>
        <mxCell id="dB05RF2seS8kiTpS__xH-5" value="" style="verticalLabelPosition=bottom;verticalAlign=top;html=1;strokeWidth=4;shape=mxgraph.flowchart.on-page_reference;plain-blue;gradientColor=none;fillColor=#B5E3Fe;strokeColor=#000000;" vertex="1" parent="dB05RF2seS8kiTpS__xH-1">
          <mxGeometry x="312.25" y="558" width="30" height="30" as="geometry" />
        </mxCell>
        <mxCell id="dB05RF2seS8kiTpS__xH-6" value="" style="edgeStyle=orthogonalEdgeStyle;curved=1;rounded=0;orthogonalLoop=1;jettySize=auto;html=1;endArrow=none;endFill=0;strokeWidth=4;entryX=0;entryY=0.5;entryDx=0;entryDy=0;entryPerimeter=0;" edge="1" parent="dB05RF2seS8kiTpS__xH-1" source="dB05RF2seS8kiTpS__xH-7" target="dB05RF2seS8kiTpS__xH-8">
          <mxGeometry relative="1" as="geometry">
            <mxPoint x="642.2499999999995" y="573" as="targetPoint" />
          </mxGeometry>
        </mxCell>
        <mxCell id="dB05RF2seS8kiTpS__xH-7" value="" style="verticalLabelPosition=bottom;verticalAlign=top;html=1;strokeWidth=4;shape=mxgraph.flowchart.on-page_reference;plain-blue;gradientColor=none;strokeColor=#000000;fillColor=#B5E3FE;" vertex="1" parent="dB05RF2seS8kiTpS__xH-1">
          <mxGeometry x="560" y="558" width="30" height="30" as="geometry" />
        </mxCell>
        <mxCell id="dB05RF2seS8kiTpS__xH-8" value="" style="verticalLabelPosition=bottom;verticalAlign=top;html=1;strokeWidth=4;shape=mxgraph.flowchart.on-page_reference;plain-blue;gradientColor=none;strokeColor=#33001A;fillColor=#97D077;" vertex="1" parent="dB05RF2seS8kiTpS__xH-1">
          <mxGeometry x="769" y="558" width="30" height="30" as="geometry" />
        </mxCell>
        <mxCell id="dB05RF2seS8kiTpS__xH-9" value="" style="edgeStyle=orthogonalEdgeStyle;rounded=0;html=1;jettySize=auto;orthogonalLoop=1;strokeWidth=4;endArrow=none;endFill=0;" edge="1" parent="dB05RF2seS8kiTpS__xH-1" target="dB05RF2seS8kiTpS__xH-5">
          <mxGeometry x="242.25" y="573" as="geometry">
            <mxPoint x="200" y="573" as="sourcePoint" />
          </mxGeometry>
        </mxCell>
        <mxCell id="dB05RF2seS8kiTpS__xH-10" value="develop" style="text;html=1;strokeColor=none;fillColor=none;align=center;verticalAlign=middle;whiteSpace=wrap;overflow=hidden;fontSize=14;fontStyle=1;fontFamily=Courier New;" vertex="1" parent="dB05RF2seS8kiTpS__xH-1">
          <mxGeometry x="110" y="552" width="73" height="42" as="geometry" />
        </mxCell>
        <mxCell id="dB05RF2seS8kiTpS__xH-16" value="" style="edgeStyle=orthogonalEdgeStyle;rounded=0;orthogonalLoop=1;jettySize=auto;html=1;endArrow=none;endFill=0;strokeWidth=4;" edge="1" parent="dB05RF2seS8kiTpS__xH-1" source="dB05RF2seS8kiTpS__xH-17" target="dB05RF2seS8kiTpS__xH-19">
          <mxGeometry relative="1" as="geometry" />
        </mxCell>
        <mxCell id="dB05RF2seS8kiTpS__xH-17" value="" style="verticalLabelPosition=bottom;verticalAlign=top;html=1;strokeWidth=4;shape=mxgraph.flowchart.on-page_reference;plain-purple;gradientColor=none;strokeColor=#000000;fillColor=#FFFF00;" vertex="1" parent="dB05RF2seS8kiTpS__xH-1">
          <mxGeometry x="420" y="440" width="30" height="30" as="geometry" />
        </mxCell>
        <mxCell id="dB05RF2seS8kiTpS__xH-19" value="" style="verticalLabelPosition=bottom;verticalAlign=top;html=1;strokeWidth=4;shape=mxgraph.flowchart.on-page_reference;plain-purple;gradientColor=none;strokeColor=#000000;fillColor=#FFFF00;" vertex="1" parent="dB05RF2seS8kiTpS__xH-1">
          <mxGeometry x="490" y="440" width="30" height="30" as="geometry" />
        </mxCell>
        <mxCell id="dB05RF2seS8kiTpS__xH-20" value="feature/SEPASSFRNT-1234-ma_feature" style="text;html=1;strokeColor=none;fillColor=none;align=left;verticalAlign=middle;whiteSpace=wrap;overflow=hidden;fontSize=14;fontStyle=1;fontFamily=Courier New;" vertex="1" parent="dB05RF2seS8kiTpS__xH-1">
          <mxGeometry x="17.5" y="445" width="292.5" height="20" as="geometry" />
        </mxCell>
        <mxCell id="dB05RF2seS8kiTpS__xH-21" value="Your feature branch" style="text;html=1;strokeColor=none;fillColor=none;align=left;verticalAlign=middle;whiteSpace=wrap;overflow=hidden;fontSize=14;fontStyle=0;fontColor=#009900;" vertex="1" parent="dB05RF2seS8kiTpS__xH-1">
          <mxGeometry x="85.75" y="465" width="240" height="20" as="geometry" />
        </mxCell>
        <mxCell id="dB05RF2seS8kiTpS__xH-23" value="The main branch&lt;br&gt;" style="text;html=1;strokeColor=none;fillColor=none;align=left;verticalAlign=middle;whiteSpace=wrap;overflow=hidden;fontSize=14;fontStyle=0;fontColor=#009900;" vertex="1" parent="dB05RF2seS8kiTpS__xH-1">
          <mxGeometry x="138.25" y="582" width="146.75" height="20" as="geometry" />
        </mxCell>
        <mxCell id="dB05RF2seS8kiTpS__xH-24" value="" style="endArrow=classic;html=1;strokeWidth=1;fontFamily=Courier New;fontColor=#009900;" edge="1" parent="dB05RF2seS8kiTpS__xH-1">
          <mxGeometry width="50" height="50" relative="1" as="geometry">
            <mxPoint x="330" y="455" as="sourcePoint" />
            <mxPoint x="380" y="455" as="targetPoint" />
          </mxGeometry>
        </mxCell>
        <mxCell id="dB05RF2seS8kiTpS__xH-38" value="BRANCH OFF" style="edgeStyle=orthogonalEdgeStyle;curved=1;rounded=0;orthogonalLoop=1;jettySize=auto;html=1;entryX=0;entryY=0.5;entryDx=0;entryDy=0;entryPerimeter=0;endArrow=none;endFill=0;strokeWidth=4;fontFamily=Courier New;fontColor=#009900;exitX=1;exitY=0.5;exitDx=0;exitDy=0;exitPerimeter=0;" edge="1" parent="dB05RF2seS8kiTpS__xH-1" source="dB05RF2seS8kiTpS__xH-5" target="dB05RF2seS8kiTpS__xH-17">
          <mxGeometry relative="1" as="geometry">
            <mxPoint x="350" y="570" as="sourcePoint" />
            <mxPoint x="415" y="421" as="targetPoint" />
          </mxGeometry>
        </mxCell>
        <mxCell id="dB05RF2seS8kiTpS__xH-40" value="" style="verticalLabelPosition=bottom;verticalAlign=top;html=1;strokeWidth=4;shape=mxgraph.flowchart.on-page_reference;plain-purple;gradientColor=none;strokeColor=#000000;fillColor=#D5E8D4;" vertex="1" parent="dB05RF2seS8kiTpS__xH-1">
          <mxGeometry x="560" y="440" width="30" height="30" as="geometry" />
        </mxCell>
        <mxCell id="dB05RF2seS8kiTpS__xH-41" value="" style="edgeStyle=orthogonalEdgeStyle;rounded=0;orthogonalLoop=1;jettySize=auto;html=1;endArrow=none;endFill=0;strokeWidth=4;exitX=1;exitY=0.5;exitDx=0;exitDy=0;exitPerimeter=0;entryX=0;entryY=0.5;entryDx=0;entryDy=0;entryPerimeter=0;" edge="1" parent="dB05RF2seS8kiTpS__xH-1" source="dB05RF2seS8kiTpS__xH-19" target="dB05RF2seS8kiTpS__xH-40">
          <mxGeometry relative="1" as="geometry">
            <mxPoint x="620" y="460" as="sourcePoint" />
            <mxPoint x="660" y="460" as="targetPoint" />
          </mxGeometry>
        </mxCell>
        <mxCell id="9LZtzdrOr4nHdWzr7-57-0" value="PULL REQUEST (FAST WORWARD)" style="edgeStyle=orthogonalEdgeStyle;curved=1;rounded=0;html=1;entryX=0;entryY=0.5;entryPerimeter=0;endArrow=none;endFill=0;jettySize=auto;orthogonalLoop=1;strokeWidth=4;fontSize=11;entryDx=0;entryDy=0;exitX=1;exitY=0.5;exitDx=0;exitDy=0;exitPerimeter=0;fontColor=#9999FF;" edge="1" parent="dB05RF2seS8kiTpS__xH-1" source="9LZtzdrOr4nHdWzr7-57-2" target="dB05RF2seS8kiTpS__xH-8">
          <mxGeometry x="-0.0428" relative="1" as="geometry">
            <mxPoint x="810" y="450" as="sourcePoint" />
            <mxPoint x="617.75" y="335" as="targetPoint" />
            <mxPoint y="1" as="offset" />
          </mxGeometry>
        </mxCell>
        <mxCell id="9LZtzdrOr4nHdWzr7-57-1" value="REBASE / REWORK" style="edgeStyle=orthogonalEdgeStyle;curved=1;rounded=0;orthogonalLoop=1;jettySize=auto;html=1;entryX=0;entryY=0.5;entryDx=0;entryDy=0;entryPerimeter=0;endArrow=none;endFill=0;strokeWidth=4;fontFamily=Courier New;fontColor=#009900;exitX=1;exitY=0.5;exitDx=0;exitDy=0;exitPerimeter=0;" edge="1" parent="dB05RF2seS8kiTpS__xH-1" source="dB05RF2seS8kiTpS__xH-7" target="dB05RF2seS8kiTpS__xH-40">
          <mxGeometry relative="1" as="geometry">
            <mxPoint x="550" y="500" as="sourcePoint" />
            <mxPoint x="627.75" y="382" as="targetPoint" />
          </mxGeometry>
        </mxCell>
        <mxCell id="9LZtzdrOr4nHdWzr7-57-2" value="" style="verticalLabelPosition=bottom;verticalAlign=top;html=1;strokeWidth=4;shape=mxgraph.flowchart.on-page_reference;plain-purple;gradientColor=none;strokeColor=#000000;fillColor=#FFFF00;" vertex="1" parent="dB05RF2seS8kiTpS__xH-1">
          <mxGeometry x="670" y="440" width="30" height="30" as="geometry" />
        </mxCell>
        <mxCell id="9LZtzdrOr4nHdWzr7-57-3" value="" style="edgeStyle=orthogonalEdgeStyle;curved=1;rounded=0;orthogonalLoop=1;jettySize=auto;html=1;endArrow=none;endFill=0;strokeWidth=4;entryX=0;entryY=0.5;entryDx=0;entryDy=0;entryPerimeter=0;exitX=1;exitY=0.5;exitDx=0;exitDy=0;exitPerimeter=0;" edge="1" parent="dB05RF2seS8kiTpS__xH-1" source="dB05RF2seS8kiTpS__xH-40" target="9LZtzdrOr4nHdWzr7-57-2">
          <mxGeometry relative="1" as="geometry">
            <mxPoint x="779" y="583" as="targetPoint" />
            <mxPoint x="600" y="583" as="sourcePoint" />
          </mxGeometry>
        </mxCell>
      </root>
    </mxGraphModel>
  </diagram>
</mxfile>
